<svg viewBox="0 0 1200 1600" xmlns="http://www.w3.org/2000/svg">
  <!-- Background -->
  <rect width="1200" height="1600" fill="#F8F8F8"/>
  
  <!-- Header/Navbar -->
  <rect x="0" y="0" width="1200" height="80" fill="#472D2D" />
  <!-- Logo -->
  <circle cx="60" cy="40" r="25" fill="#FFC3A1" />
  <text x="60" y="45" text-anchor="middle" font-family="Arial" font-size="16" fill="#472D2D" font-weight="bold">BOBA</text>
  <text x="100" y="45" font-family="Arial" font-size="16" fill="#FFC3A1" font-weight="bold">KU</text>
  <!-- Nav Items -->
  <text x="180" y="45" font-family="Arial" font-size="14" fill="#fff">Home</text>
  <text x="250" y="45" font-family="Arial" font-size="14" fill="#fff">Menu</text>
  <text x="320" y="45" font-family="Arial" font-size="14" fill="#fff">About Us</text>
  <text x="420" y="45" font-family="Arial" font-size="14" fill="#fff">Locations</text>
  <text x="520" y="45" font-family="Arial" font-size="14" fill="#fff">Contact</text>
  <!-- Shopping Cart -->
  <circle cx="1140" cy="40" r="18" fill="#FFC3A1" />
  <text x="1140" y="45" text-anchor="middle" font-family="Arial" font-size="14" fill="#472D2D">🛒</text>
  
  <!-- Page Title -->
  <text x="600" y="150" text-anchor="middle" font-family="Arial" font-size="32" font-weight="bold" fill="#472D2D">Our Menu</text>
  <line x1="500" y1="170" x2="700" y2="170" stroke="#FFC3A1" stroke-width="3" />
  <text x="600" y="200" text-anchor="middle" font-family="Arial" font-size="18" fill="#472D2D">Discover our freshly brewed bubble tea varieties</text>
  
  <!-- Category Filter Tabs -->
  <rect x="150" y="240" width="900" height="60" fill="#DCD7C9" rx="10" ry="10" />
  
  <!-- Active Category -->
  <rect x="150" y="240" width="180" height="60" fill="#FFC3A1" rx="10" ry="10" />
  <text x="240" y="275" text-anchor="middle" font-family="Arial" font-size="16" font-weight="bold" fill="#472D2D">All Items</text>
  
  <!-- Other Categories -->
  <text x="380" y="275" text-anchor="middle" font-family="Arial" font-size="16" fill="#472D2D">Signature</text>
  <text x="520" y="275" text-anchor="middle" font-family="Arial" font-size="16" fill="#472D2D">Classic</text>
  <text x="660" y="275" text-anchor="middle" font-family="Arial" font-size="16" fill="#472D2D">Fruit Tea</text>
  <text x="800" y="275" text-anchor="middle" font-family="Arial" font-size="16" fill="#472D2D">Special</text>
  <text x="940" y="275" text-anchor="middle" font-family="Arial" font-size="16" fill="#472D2D">Popular</text>
  
  <!-- Search Bar -->
  <rect x="150" y="320" width="900" height="50" fill="white" stroke="#DCD7C9" stroke-width="2" rx="25" ry="25" />
  <text x="200" y="350" font-family="Arial" font-size="14" fill="#A27B5C">Search drinks...</text>
  <circle cx="1000" cy="345" r="15" fill="#FFC3A1" />
  <text x="1000" y="350" text-anchor="middle" font-family="Arial" font-size="14" fill="#472D2D">🔍</text>
  
  <!-- Product Cards Row 1 -->
  <rect x="150" y="400" width="280" height="320" rx="10" ry="10" fill="#DCD7C9" />
  <rect x="150" y="400" width="280" height="200" rx="10" ry="10" fill="#A27B5C" />
  <text x="290" y="625" text-anchor="middle" font-family="Arial" font-size="16" font-weight="bold" fill="#472D2D">Classic Milk Tea</text>
  <text x="290" y="650" text-anchor="middle" font-family="Arial" font-size="14" fill="#472D2D">Our original milk tea with boba</text>
  <text x="290" y="675" text-anchor="middle" font-family="Arial" font-size="16" fill="#A27B5C">Rp 25.000</text>
  <rect x="165" y="690" width="120" height="30" rx="15" ry="15" stroke="#FFC3A1" stroke-width="2" fill="transparent" />
  <text x="225" y="710" text-anchor="middle" font-family="Arial" font-size="14" fill="#472D2D">Details</text>
  <rect x="295" y="690" width="120" height="30" rx="15" ry="15" fill="#FFC3A1" />
  <text x="355" y="710" text-anchor="middle" font-family="Arial" font-size="14" fill="#472D2D">Add to Cart</text>
  <rect x="165" y="410" width="60" height="25" rx="12" ry="12" fill="#472D2D" />
  <text x="195" y="427" text-anchor="middle" font-family="Arial" font-size="12" fill="white">Signature</text>
  
  <rect x="460" y="400" width="280" height="320" rx="10" ry="10" fill="#DCD7C9" />
  <rect x="460" y="400" width="280" height="200" rx="10" ry="10" fill="#A27B5C" />
  <text x="600" y="625" text-anchor="middle" font-family="Arial" font-size="16" font-weight="bold" fill="#472D2D">Taro Milk Tea</text>
  <text x="600" y="650" text-anchor="middle" font-family="Arial" font-size="14" fill="#472D2D">Creamy taro flavored milk tea</text>
  <text x="600" y="675" text-anchor="middle" font-family="Arial" font-size="16" fill="#A27B5C">Rp 28.000</text>
  <rect x="475" y="690" width="120" height="30" rx="15" ry="15" stroke="#FFC3A1" stroke-width="2" fill="transparent" />
  <text x="535" y="710" text-anchor="middle" font-family="Arial" font-size="14" fill="#472D2D">Details</text>
  <rect x="605" y="690" width="120" height="30" rx="15" ry="15" fill="#FFC3A1" />
  <text x="665" y="710" text-anchor="middle" font-family="Arial" font-size="14" fill="#472D2D">Add to Cart</text>
  <rect x="475" y="410" width="60" height="25" rx="12" ry="12" fill="#472D2D" />
  <text x="505" y="427" text-anchor="middle" font-family="Arial" font-size="12" fill="white">Signature</text>
  
  <rect x="770" y="400" width="280" height="320" rx="10" ry="10" fill="#DCD7C9" />
  <rect x="770" y="400" width="280" height="200" rx="10" ry="10" fill="#A27B5C" />
  <text x="910" y="625" text-anchor="middle" font-family="Arial" font-size="16" font-weight="bold" fill="#472D2D">Brown Sugar Boba</text>
  <text x="910" y="650" text-anchor="middle" font-family="Arial" font-size="14" fill="#472D2D">Fresh milk with brown sugar syrup</text>
  <text x="910" y="675" text-anchor="middle" font-family="Arial" font-size="16" fill="#A27B5C">Rp 30.000</text>
  <rect x="785" y="690" width="120" height="30" rx="15" ry="15" stroke="#FFC3A1" stroke-width="2" fill="transparent" />
  <text x="845" y="710" text-anchor="middle" font-family="Arial" font-size="14" fill="#472D2D">Details</text>
  <rect x="915" y="690" width="120" height="30" rx="15" ry="15" fill="#FFC3A1" />
  <text x="975" y="710" text-anchor="middle" font-family="Arial" font-size="14" fill="#472D2D">Add to Cart</text>
  <rect x="785" y="410" width="60" height="25" rx="12" ry="12" fill="#472D2D" />
  <text x="815" y="427" text-anchor="middle" font-family="Arial" font-size="12" fill="white">Signature</text>
  
  <!-- Product Cards Row 2 -->
  <rect x="150" y="750" width="280" height="320" rx="10" ry="10" fill="#DCD7C9" />
  <rect x="150" y="750" width="280" height="200" rx="10" ry="10" fill="#A27B5C" />
  <text x="290" y="975" text-anchor="middle" font-family="Arial" font-size="16" font-weight="bold" fill="#472D2D">Matcha Latte</text>
  <text x="290" y="1000" text-anchor="middle" font-family="Arial" font-size="14" fill="#472D2D">Premium Japanese matcha blend</text>
  <text x="290" y="1025" text-anchor="middle" font-family="Arial" font-size="16" fill="#A27B5C">Rp 28.000</text>
  <rect x="165" y="1040" width="120" height="30" rx="15" ry="15" stroke="#FFC3A1" stroke-width="2" fill="transparent" />
  <text x="225" y="1060" text-anchor="middle" font-family="Arial" font-size="14" fill="#472D2D">Details</text>
  <rect x="295" y="1040" width="120" height="30" rx="15" ry="15" fill="#FFC3A1" />
  <text x="355" y="1060" text-anchor="middle" font-family="Arial" font-size="14" fill="#472D2D">Add to Cart</text>
  <rect x="165" y="760" width="60" height="25" rx="12" ry="12" fill="#472D2D" />
  <text x="195" y="777" text-anchor="middle" font-family="Arial" font-size="12" fill="white">Signature</text>
  
  <rect x="460" y="750" width="280" height="320" rx="10" ry="10" fill="#DCD7C9" />
  <rect x="460" y="750" width="280" height="200" rx="10" ry="10" fill="#A27B5C" />
  <text x="600" y="975" text-anchor="middle" font-family="Arial" font-size="16" font-weight="bold" fill="#472D2D">Chocolate Boba</text>
  <text x="600" y="1000" text-anchor="middle" font-family="Arial" font-size="14" fill="#472D2D">Rich chocolate flavor with boba</text>
  <text x="600" y="1025" text-anchor="middle" font-family="Arial" font-size="16" fill="#A27B5C">Rp 27.000</text>
  <rect x="475" y="1040" width="120" height="30" rx="15" ry="15" stroke="#FFC3A1" stroke-width="2" fill="transparent" />
  <text x="535" y="1060" text-anchor="middle" font-family="Arial" font-size="14" fill="#472D2D">Details</text>
  <rect x="605" y="1040" width="120" height="30" rx="15" ry="15" fill="#FFC3A1" />
  <text x="665" y="1060" text-anchor="middle" font-family="Arial" font-size="14" fill="#472D2D">Add to Cart</text>
  <rect x="475" y="760" width="60" height="25" rx="12" ry="12" fill="#472D2D" />
  <text x="505" y="777" text-anchor="middle" font-family="Arial" font-size="12" fill="white">Classic</text>
  
  <rect x="770" y="750" width="280" height="320" rx="10" ry="10" fill="#DCD7C9" />
  <rect x="770" y="750" width="280" height="200" rx="10" ry="10" fill="#A27B5C" />
  <text x="910" y="975" text-anchor="middle" font-family="Arial" font-size="16" font-weight="bold" fill="#472D2D">Lychee Fruit Tea</text>
  <text x="910" y="1000" text-anchor="middle" font-family="Arial" font-size="14" fill="#472D2D">Refreshing black tea with lychee</text>
  <text x="910" y="1025" text-anchor="middle" font-family="Arial" font-size="16" fill="#A27B5C">Rp 26.000</text>
  <rect x="785" y="1040" width="120" height="30" rx="15" ry="15" stroke="#FFC3A1" stroke-width="2" fill="transparent" />
  <text x="845" y="1060" text-anchor="middle" font-family="Arial" font-size="14" fill="#472D2D">Details</text>
  <rect x="915" y="1040" width="120" height="30" rx="15" ry="15" fill="#FFC3A1" />
  <text x="975" y="1060" text-anchor="middle" font-family="Arial" font-size="14" fill="#472D2D">Add to Cart</text>
  <rect x="785" y="760" width="60" height="25" rx="12" ry="12" fill="#472D2D" />
  <text x="815" y="777" text-anchor="middle" font-family="Arial" font-size="12" fill="white">Fruit</text>
  
  <!-- Product Cards Row 3 -->
  <rect x="150" y="1100" width="280" height="320" rx="10" ry="10" fill="#DCD7C9" />
  <rect x="150" y="1100" width="280" height="200" rx="10" ry="10" fill="#A27B5C" />
  <text x="290" y="1325" text-anchor="middle" font-family="Arial" font-size="16" font-weight="bold" fill="#472D2D">Oreo Cream Milk Tea</text>
  <text x="290" y="1350" text-anchor="middle" font-family="Arial" font-size="14" fill="#472D2D">Milk tea with Oreo cookies</text>
  <text x="290" y="1375" text-anchor="middle" font-family="Arial" font-size="16" fill="#A27B5C">Rp 32.000</text>
  <rect x="165" y="1390" width="120" height="30" rx="15" ry="15" stroke="#FFC3A1" stroke-width="2" fill="transparent" />
  <text x="225" y="1410" text-anchor="middle" font-family="Arial" font-size="14" fill="#472D2D">Details</text>
  <rect x="295" y="1390" width="120" height="30" rx="15" ry="15" fill="#FFC3A1" />
  <text x="355" y="1410" text-anchor="middle" font-family="Arial" font-size="14" fill="#472D2D">Add to Cart</text>
  <rect x="165" y="1110" width="60" height="25" rx="12" ry="12" fill="#472D2D" />
  <text x="195" y="1127" text-anchor="middle" font-family="Arial" font-size="12" fill="white">Special</text>
  
  <rect x="460" y="1100" width="280" height="320" rx="10" ry="10" fill="#DCD7C9" />
  <rect x="460" y="1100" width="280" height="200" rx="10" ry="10" fill="#A27B5C" />
  <text x="600" y="1325" text-anchor="middle" font-family="Arial" font-size="16" font-weight="bold" fill="#472D2D">Hazelnut Milk Tea</text>
  <text x="600" y="1350" text-anchor="middle" font-family="Arial" font-size="14" fill="#472D2D">Black tea with rich hazelnut flavor</text>
  <text x="600" y="1375" text-anchor="middle" font-family="Arial" font-size="16" fill="#A27B5C">Rp 27.000</text>
  <rect x="475" y="1390" width="120" height="30" rx="15" ry="15" stroke="#FFC3A1" stroke-width="2" fill="transparent" />
  <text x="535" y="1410" text-anchor="middle" font-family="Arial" font-size="14" fill="#472D2D">Details</text>
  <rect x="605" y="1390" width="120" height="30" rx="15" ry="15" fill="#FFC3A1" />
  <text x="665" y="1410" text-anchor="middle" font-family="Arial" font-size="14" fill="#472D2D">Add to Cart</text>
  <rect x="475" y="1110" width="60" height="25" rx="12" ry="12" fill="#472D2D" />
  <text x="505" y="1127" text-anchor="middle" font-family="Arial" font-size="12" fill="white">Classic</text>
  
  <rect x="770" y="1100" width="280" height="320" rx="10" ry="10" fill="#DCD7C9" />
  <rect x="770" y="1100" width="280" height="200" rx="10" ry="10" fill="#A27B5C" />
  <text x="910" y="1325" text-anchor="middle" font-family="Arial" font-size="16" font-weight="bold" fill="#472D2D">Thai Milk Tea</text>
  <text x="910" y="1350" text-anchor="middle" font-family="Arial" font-size="14" fill="#472D2D">Strong tea with condensed milk</text>
  <text x="910" y="1375" text-anchor="middle" font-family="Arial" font-size="16" fill="#A27B5C">Rp 28.000</text>
  <rect x="785" y="1390" width="120" height="30" rx="15" ry="15" stroke="#FFC3A1" stroke-width="2" fill="transparent" />
  <text x="845" y="1410" text-anchor="middle" font-family="Arial" font-size="14" fill="#472D2D">Details</text>
  <rect x="915" y="1390" width="120" height="30" rx="15" ry="15" fill="#FFC3A1" />
  <text x="975" y="1410" text-anchor="middle" font-family="Arial" font-size="14" fill="#472D2D">Add to Cart</text>
  <rect x="785" y="1110" width="60" height="25" rx="12" ry="12" fill="#472D2D" />
  <text x="815" y="1127" text-anchor="middle" font-family="Arial" font-size="12" fill="white">Special</text>
  
  <!-- Pagination -->
  <rect x="550" y="1450" width="100" height="40" rx="5" ry="5" fill="#FFC3A1" />
  <text x="600" y="1475" text-anchor="middle" font-family="Arial" font-size="16" fill="#472D2D">1</text>
  <rect x="660" y="1450" width="40" height="40" rx="5" ry="5" fill="white" stroke="#DCD7C9" stroke-width="2" />
  <text x="680" y="1475" text-anchor="middle" font-family="Arial" font-size="16" fill="#472D2D">2</text>
  <rect x="710" y="1450" width="40" height="40" rx="5" ry="5" fill="white" stroke="#DCD7C9" stroke-width="2" />
  <text x="730" y="1475" text-anchor="middle" font-family="Arial" font-size="16" fill="#472D2D">></text>
  <rect x="500" y="1450" width="40" height="40" rx="5" ry="5" fill="white" stroke="#DCD7C9" stroke-width="2" />
  <text x="520" y="1475" text-anchor="middle" font-family="Arial" font-size="16" fill="#472D2D"><</text>
  
  <!-- Footer -->
  <rect x="0" y="1540" width="1200" height="60" fill="#472D2D" />
  <text x="600" y="1575" text-anchor="middle" font-family="Arial" font-size="14" fill="#DCD7C9">© 2023 BobaKu. All rights reserved.</text>
</svg>