<svg viewBox="0 0 1200 1600" xmlns="http://www.w3.org/2000/svg">
  <!-- Overlay Background -->
  <rect width="1200" height="1600" fill="rgba(0,0,0,0.5)"/>
  
  <!-- Modal Dialog -->
  <rect x="200" y="200" width="800" height="800" rx="20" ry="20" fill="#F8F8F8" stroke="#DCD7C9" stroke-width="2"/>
  
  <!-- Close Button -->
  <circle cx="960" cy="240" r="25" fill="#FFC3A1"/>
  <text x="960" y="248" text-anchor="middle" font-family="Arial" font-size="20" font-weight="bold" fill="#472D2D">×</text>
  
  <!-- Product Image -->
  <rect x="240" y="280" width="320" height="320" rx="10" ry="10" fill="#A27B5C"/>
  
  <!-- Product Details -->
  <text x="600" y="300" font-family="Arial" font-size="28" font-weight="bold" fill="#472D2D">Brown Sugar Boba</text>
  <line x1="600" y1="310" x2="900" y2="310" stroke="#FFC3A1" stroke-width="3"/>
  
  <!-- Category Tag -->
  <rect x="600" y="330" width="80" height="25" rx="12" ry="12" fill="#472D2D"/>
  <text x="640" y="347" text-anchor="middle" font-family="Arial" font-size="12" fill="white">Signature</text>
  
  <!-- Popular Badge -->
  <rect x="690" y="330" width="80" height="25" rx="12" ry="12" fill="#FFC3A1"/>
  <text x="730" y="347" text-anchor="middle" font-family="Arial" font-size="12" fill="#472D2D">Popular</text>
  
  <!-- Price -->
  <text x="600" y="380" font-family="Arial" font-size="22" font-weight="bold" fill="#A27B5C">Rp 30.000</text>
  
  <!-- Description -->
  <text x="600" y="420" font-family="Arial" font-size="16" fill="#472D2D">Fresh milk with brown sugar syrup and</text>
  <text x="600" y="445" font-family="Arial" font-size="16" fill="#472D2D">boba pearls cooked in brown sugar,</text>
  <text x="600" y="470" font-family="Arial" font-size="16" fill="#472D2D">creating beautiful tiger stripes.</text>
  
  <!-- Allergens -->
  <text x="600" y="510" font-family="Arial" font-size="14" fill="#472D2D">Allergens: Milk</text>
  
  <!-- Customization Options -->
  <text x="600" y="550" font-family="Arial" font-size="18" font-weight="bold" fill="#472D2D">Customize Your Drink</text>
  
  <!-- Sugar Level -->
  <text x="600" y="580" font-family="Arial" font-size="16" fill="#472D2D">Sugar Level:</text>
  <rect x="700" y="565" width="50" height="25" rx="12" ry="12" fill="#FFC3A1"/>
  <text x="725" y="582" text-anchor="middle" font-family="Arial" font-size="12" fill="#472D2D">0%</text>
  <rect x="760" y="565" width="50" height="25" rx="12" ry="12" fill="white" stroke="#DCD7C9" stroke-width="2"/>
  <text x="785" y="582" text-anchor="middle" font-family="Arial" font-size="12" fill="#472D2D">30%</text>
  <rect x="820" y="565" width="50" height="25" rx="12" ry="12" fill="white" stroke="#DCD7C9" stroke-width="2"/>
  <text x="845" y="582" text-anchor="middle" font-family="Arial" font-size="12" fill="#472D2D">50%</text>
  <rect x="880" y="565" width="50" height="25" rx="12" ry="12" fill="white" stroke="#DCD7C9" stroke-width="2"/>
  <text x="905" y="582" text-anchor="middle" font-family="Arial" font-size="12" fill="#472D2D">100%</text>
  
  <!-- Ice Level -->
  <text x="600" y="620" font-family="Arial" font-size="16" fill="#472D2D">Ice Level:</text>
  <rect x="700" y="605" width="50" height="25" rx="12" ry="12" fill="white" stroke="#DCD7C9" stroke-width="2"/>
  <text x="725" y="622" text-anchor="middle" font-family="Arial" font-size="12" fill="#472D2D">0%</text>
  <rect x="760" y="605" width="50" height="25" rx="12" ry="12" fill="white" stroke="#DCD7C9" stroke-width="2"/>
  <text x="785" y="622" text-anchor="middle" font-family="Arial" font-size="12" fill="#472D2D">30%</text>
  <rect x="820" y="605" width="50" height="25" rx="12" ry="12" fill="#FFC3A1"/>
  <text x="845" y="622" text-anchor="middle" font-family="Arial" font-size="12" fill="#472D2D">50%</text>
  <rect x="880" y="605" width="50" height="25" rx="12" ry="12" fill="white" stroke="#DCD7C9" stroke-width="2"/>
  <text x="905" y="622" text-anchor="middle" font-family="Arial" font-size="12" fill="#472D2D">100%</text>
  
  <!-- Toppings -->
  <text x="600" y="660" font-family="Arial" font-size="16" fill="#472D2D">Extra Toppings:</text>
  
  <!-- Topping Options -->
  <rect x="600" y="670" width="300" height="120" fill="white" stroke="#DCD7C9" stroke-width="2" rx="10" ry="10"/>
  
  <rect x="615" y="685" width="20" height="20" fill="white" stroke="#472D2D" stroke-width="2"/>
  <rect x="615" y="685" width="20" height="20" fill="#FFC3A1" stroke="#472D2D" stroke-width="2"/>
  <text x="645" y="700" font-family="Arial" font-size="14" fill="#472D2D">Extra Boba Pearls (+Rp 3.000)</text>
  
  <rect x="615" y="715" width="20" height="20" fill="white" stroke="#472D2D" stroke-width="2"/>
  <text x="645" y="730" font-family="Arial" font-size="14" fill="#472D2D">Grass Jelly (+Rp 4.000)</text>
  
  <rect x="615" y="745" width="20" height="20" fill="white" stroke="#472D2D" stroke-width="2"/>
  <text x="645" y="760" font-family="Arial" font-size="14" fill="#472D2D">Pudding (+Rp 4.000)</text>
  
  <!-- Product Counter -->
  <rect x="240" y="650" width="320" height="50" fill="white" stroke="#DCD7C9" stroke-width="2" rx="25" ry="25"/>
  <circle cx="265" cy="675" r="15" fill="#FFC3A1"/>
  <text x="265" y="680" text-anchor="middle" font-family="Arial" font-size="16" font-weight="bold" fill="#472D2D">-</text>
  
  <text x="400" y="680" text-anchor="middle" font-family="Arial" font-size="16" font-weight="bold" fill="#472D2D">1</text>
  
  <circle cx="535" cy="675" r="15" fill="#FFC3A1"/>
  <text x="535" y="680" text-anchor="middle" font-family="Arial" font-size="16" font-weight="bold" fill="#472D2D">+</text>
  
  <!-- Add to Cart Button -->
  <rect x="240" y="720" width="320" height="60" rx="30" ry="30" fill="#A27B5C"/>
  <text x="400" y="760" text-anchor="middle" font-family="Arial" font-size="18" font-weight="bold" fill="white">Add to Cart - Rp 33.000</text>
  
  <!-- Recommendations Section -->
  <text x="240" y="820" font-family="Arial" font-size="18" font-weight="bold" fill="#472D2D">You May Also Like</text>
  
  <!-- Recommendation Items -->
  <rect x="240" y="840" width="150" height="130" rx="10" ry="10" fill="#DCD7C9"/>
  <rect x="410" y="840" width="150" height="130" rx="10" ry="10" fill="#DCD7C9"/>
  <rect x="580" y="840" width="150" height="130" rx="10" ry="10" fill="#DCD7C9"/>
  <rect x="750" y="840" width="150" height="130" rx="10" ry="10" fill="#DCD7C9"/>
</svg>