<svg viewBox="0 0 100 30" xmlns="http://www.w3.org/2000/svg">
  <!-- Location Pin Icon -->
  <g id="location-icon" transform="translate(0,0)">
    <circle cx="15" cy="15" r="15" fill="none"/>
    <path d="M15 7c-3.3 0-6 2.7-6 6 0 4.5 6 10 6 10s6-5.5 6-10c0-3.3-2.7-6-6-6zm0 8c-1.1 0-2-0.9-2-2s0.9-2 2-2 2 0.9 2 2-0.9 2-2 2z" fill="#472D2D"/>
  </g>
  
  <!-- Phone Icon -->
  <g id="phone-icon" transform="translate(35,0)">
    <circle cx="15" cy="15" r="15" fill="none"/>
    <path d="M18.5 21c-2.2 0-4.3-0.7-6-2-1.5-1.1-2.7-2.3-3.7-3.7-1-1.7-1.5-3.6-1.3-5.5 0-0.8 0.2-1.5 0.6-2.1 0.4-0.7 1-1.2 1.8-1.5 0.2-0.1 0.5-0.1 0.7-0.1 0.4 0 0.7 0.3 0.9 0.8l1 2.5c0.1 0.3 0.1 0.6 0 0.9-0.1 0.3-0.3 0.5-0.5 0.7l-1.2 0.9c0.5 0.9 1.2 1.7 2 2.3 0.8 0.6 1.7 1.1 2.7 1.4l1-1.1c0.2-0.2 0.5-0.4 0.8-0.5 0.3-0.1 0.6-0.1 0.9 0l2.6 0.7c0.5 0.1 0.8 0.5 0.8 0.9 0 0.2 0 0.5-0.1 0.7-0.2 0.8-0.8 1.4-1.5 1.8-0.7 0.4-1.5 0.7-2.3 0.8-0.1 0-0.2 0-0.2 0z" fill="#472D2D"/>
  </g>
  
  <!-- Email Icon -->
  <g id="email-icon" transform="translate(70,0)">
    <circle cx="15" cy="15" r="15" fill="none"/>
    <rect x="7" y="10" width="16" height="10" rx="1" fill="none" stroke="#472D2D" stroke-width="1.5"/>
    <path d="M7 11l8 5 8-5" fill="none" stroke="#472D2D" stroke-width="1.5" stroke-linecap="round"/>
  </g>
</svg>