<?xml version="1.0" encoding="UTF-8"?>
<svg width="500" height="500" viewBox="0 0 500 500" xmlns="http://www.w3.org/2000/svg">
  <!-- Background bubble pattern -->
  <defs>
    <pattern id="bubblePattern" x="0" y="0" width="50" height="50" patternUnits="userSpaceOnUse">
      <circle cx="10" cy="10" r="3" fill="#d1e8c4" opacity="0.5"/>
      <circle cx="30" cy="25" r="2" fill="#d1e8c4" opacity="0.3"/>
      <circle cx="45" cy="40" r="4" fill="#d1e8c4" opacity="0.4"/>
    </pattern>
    <linearGradient id="matchaGradient" x1="0%" y1="0%" x2="0%" y2="100%">
      <stop offset="0%" style="stop-color:#4c8c35;stop-opacity:1" />
      <stop offset="50%" style="stop-color:#84b56e;stop-opacity:1" />
      <stop offset="100%" style="stop-color:#bfe2a9;stop-opacity:1" />
    </linearGradient>
  </defs>
  <rect width="500" height="500" fill="url(#bubblePattern)" opacity="0.3"/>

  <!-- Cup Base -->
  <path d="M160,120 L340,120 L300,420 L200,420 Z" fill="#4c8c35" opacity="0.1"/>
  <path d="M170,130 L330,130 L295,410 L205,410 Z" fill="#ffffff"/>
  
  <!-- Matcha Latte content -->
  <path d="M180,150 L320,150 L290,390 L210,390 Z" fill="url(#matchaGradient)"/>
  
  <!-- Milk Swirl -->
  <path d="M210,160 C230,170 270,165 290,160 C280,180 240,190 210,180 C200,210 240,220 290,205 C270,230 220,235 200,220 C190,250 250,255 290,240 C260,270 210,270 200,260" fill="none" stroke="#f5f5f5" stroke-width="6" opacity="0.7"/>
  
  <!-- Matcha Powder on Top -->
  <ellipse cx="250" cy="160" rx="60" ry="10" fill="#4c8c35" opacity="0.3"/>
  <circle cx="230" cy="165" r="2" fill="#4c8c35"/>
  <circle cx="260" cy="158" r="3" fill="#4c8c35"/>
  <circle cx="270" cy="163" r="1" fill="#4c8c35"/>
  <circle cx="240" cy="157" r="2" fill="#4c8c35"/>
  <circle cx="220" cy="160" r="1" fill="#4c8c35"/>
  
  <!-- Tapioca Pearls -->
  <circle cx="220" cy="370" r="8" fill="#221c1a"/>
  <circle cx="250" cy="375" r="8" fill="#221c1a"/>
  <circle cx="280" cy="370" r="8" fill="#221c1a"/>
  <circle cx="230" cy="350" r="8" fill="#221c1a"/>
  <circle cx="260" cy="360" r="8" fill="#221c1a"/>
  <circle cx="235" cy="380" r="8" fill="#221c1a"/>
  <circle cx="270" cy="380" r="8" fill="#221c1a"/>
  
  <!-- Cup Lid -->
  <path d="M150,120 L350,120 L340,100 L160,100 Z" fill="#f0f0f0"/>
  
  <!-- Straw -->
  <path d="M245,95 L245,380" stroke="#6b9b55" stroke-width="10" stroke-linecap="round"/>
  <path d="M245,95 L250,80 L255,95" fill="#6b9b55"/>
  
  <!-- Reflection Highlights -->
  <path d="M190,180 L200,180 L195,320 L185,320 Z" fill="#ffffff" opacity="0.2"/>
  <ellipse cx="250" cy="150" rx="60" ry="10" fill="#ffffff" opacity="0.2"/>
</svg>