<svg viewBox="0 0 100 30" xmlns="http://www.w3.org/2000/svg">
  <!-- Facebook Icon -->
  <g id="facebook-icon" transform="translate(0,0)">
    <circle cx="15" cy="15" r="15" fill="#FFFFFF"/>
    <path d="M18.9 10.5h-2.2c-0.8 0-1 0.4-1 1.3v1.6h3l-0.3 3h-2.7v9.1h-3.7v-9.1h-2v-3h2v-2.3c0-2.3 1.3-3.6 4-3.6 1.1 0 2.2 0.1 2.2 0.1v3z" fill="#472D2D"/>
  </g>
  
  <!-- Instagram Icon -->
  <g id="instagram-icon" transform="translate(35,0)">
    <circle cx="15" cy="15" r="15" fill="#FFFFFF"/>
    <path d="M15 9c1.9 0 2.1 0 2.9 0.1 0.7 0 1.1 0.2 1.4 0.3 0.3 0.1 0.6 0.3 0.9 0.5 0.2 0.2 0.4 0.5 0.5 0.9 0.1 0.3 0.2 0.7 0.3 1.4 0 0.7 0.1 1 0.1 2.9 0 1.9 0 2.1-0.1 2.9-0 0.7-0.2 1.1-0.3 1.4-0.1 0.3-0.3 0.6-0.5 0.9-0.2 0.2-0.5 0.4-0.9 0.5-0.3 0.1-0.7 0.2-1.4 0.3-0.7 0-1 0.1-2.9 0.1-1.9 0-2.1 0-2.9-0.1-0.7-0-1.1-0.2-1.4-0.3-0.3-0.1-0.6-0.3-0.9-0.5-0.2-0.2-0.4-0.5-0.5-0.9-0.1-0.3-0.2-0.7-0.3-1.4-0-0.7-0.1-1-0.1-2.9 0-1.9 0-2.1 0.1-2.9 0-0.7 0.2-1.1 0.3-1.4 0.1-0.3 0.3-0.6 0.5-0.9 0.2-0.2 0.5-0.4 0.9-0.5 0.3-0.1 0.7-0.2 1.4-0.3 0.7 0 1-0.1 2.9-0.1M15 7c-1.9 0-2.2 0-3 0.1-0.8 0-1.3 0.2-1.8 0.3-0.5 0.2-0.9 0.4-1.3 0.8-0.4 0.4-0.6 0.8-0.8 1.3-0.2 0.5-0.3 1-0.3 1.8-0 0.8-0.1 1.1-0.1 3 0 1.9 0 2.2 0.1 3 0 0.8 0.2 1.3 0.3 1.8 0.2 0.5 0.4 0.9 0.8 1.3 0.4 0.4 0.8 0.6 1.3 0.8 0.5 0.2 1 0.3 1.8 0.3 0.8 0 1.1 0.1 3 0.1 1.9 0 2.2 0 3-0.1 0.8-0 1.3-0.2 1.8-0.3 0.5-0.2 0.9-0.4 1.3-0.8 0.4-0.4 0.6-0.8 0.8-1.3 0.2-0.5 0.3-1 0.3-1.8 0-0.8 0.1-1.1 0.1-3 0-1.9 0-2.2-0.1-3-0-0.8-0.2-1.3-0.3-1.8-0.2-0.5-0.4-0.9-0.8-1.3-0.4-0.4-0.8-0.6-1.3-0.8-0.5-0.2-1-0.3-1.8-0.3-0.8-0-1.1-0.1-3-0.1z" fill="#472D2D"/>
    <path d="M15 10.9c-2 0-3.6 1.6-3.6 3.6 0 2 1.6 3.6 3.6 3.6 2 0 3.6-1.6 3.6-3.6 0-2-1.6-3.6-3.6-3.6zm0 6c-1.3 0-2.4-1.1-2.4-2.4 0-1.3 1.1-2.4 2.4-2.4 1.3 0 2.4 1.1 2.4 2.4 0 1.3-1.1 2.4-2.4 2.4z" fill="#472D2D"/>
    <circle cx="18.8" cy="10.7" r="0.9" fill="#472D2D"/>
  </g>
  
  <!-- Twitter Icon -->
  <g id="twitter-icon" transform="translate(70,0)">
    <circle cx="15" cy="15" r="15" fill="#FFFFFF"/>
    <path d="M22.5 10c-0.6 0.3-1.2 0.5-1.9 0.6 0.7-0.4 1.2-1 1.4-1.8-0.6 0.4-1.3 0.6-2.1 0.8-0.6-0.6-1.5-1-2.4-1-1.8 0-3.3 1.5-3.3 3.3 0 0.3 0 0.5 0.1 0.8-2.7-0.1-5.1-1.4-6.7-3.4-0.3 0.5-0.4 1-0.4 1.6 0 1.1 0.6 2.1 1.5 2.7-0.5 0-1-0.2-1.5-0.4 0 0 0 0 0 0 0 1.6 1.1 2.9 2.6 3.2-0.3 0.1-0.6 0.1-0.9 0.1-0.2 0-0.4 0-0.6-0.1 0.4 1.3 1.6 2.3 3.1 2.3-1.1 0.9-2.5 1.4-4.1 1.4-0.3 0-0.5 0-0.8 0 1.5 0.9 3.2 1.5 5 1.5 6 0 9.3-5 9.3-9.3 0-0.1 0-0.3 0-0.4 0.6-0.5 1.2-1 1.6-1.7z" fill="#472D2D"/>
  </g>
</svg>